<svg id="svg" version="1.1" xmlns="http://www.w3.org/2000/svg" xmlns:xlink="http://www.w3.org/1999/xlink" width="400" height="400" viewBox="0, 0, 400,400"><g id="svgg"><path id="path0" d="M75.200 300.000 L 75.200 324.800 150.000 324.800 L 224.800 324.800 224.800 300.000 L 224.800 275.200 150.000 275.200 L 75.200 275.200 75.200 300.000 M30.700 276.032 C 29.650 276.644,29.756 277.759,30.811 277.194 C 31.257 276.955,31.526 276.604,31.409 276.414 C 31.291 276.224,31.421 275.977,31.698 275.866 C 31.974 275.754,32.020 275.654,31.800 275.644 C 31.580 275.633,31.085 275.808,30.700 276.032 M27.353 279.421 C 27.484 279.762,27.421 279.936,27.213 279.808 C 26.769 279.534,25.372 281.505,25.746 281.879 C 25.886 282.019,26.000 281.923,26.000 281.667 C 26.000 281.410,26.225 281.245,26.500 281.300 C 26.775 281.355,26.959 281.186,26.908 280.924 C 26.858 280.663,27.163 280.339,27.588 280.204 C 28.364 279.957,28.304 278.800,27.514 278.800 C 27.294 278.800,27.222 279.079,27.353 279.421 M24.881 316.135 C 25.050 317.277,25.800 317.384,25.800 316.267 C 25.800 315.753,25.566 315.333,25.281 315.333 C 24.988 315.333,24.814 315.683,24.881 316.135 M25.600 318.078 C 25.600 318.803,28.147 322.159,28.315 321.655 C 28.383 321.450,27.984 320.792,27.427 320.191 C 26.870 319.591,26.500 318.962,26.603 318.795 C 26.707 318.628,26.523 318.268,26.196 317.996 C 25.715 317.597,25.600 317.613,25.600 318.078 M28.813 321.838 C 28.788 322.689,30.376 323.784,30.889 323.271 C 31.250 322.910,31.188 322.800,30.624 322.800 C 30.219 322.800,29.649 322.485,29.357 322.100 C 29.065 321.715,28.820 321.597,28.813 321.838 M31.200 324.010 C 31.200 324.225,31.380 324.423,31.600 324.450 C 31.820 324.478,32.165 324.523,32.367 324.550 C 32.568 324.578,32.868 324.735,33.033 324.900 C 33.198 325.065,33.676 325.200,34.095 325.200 C 34.728 325.200,34.767 325.110,34.327 324.670 C 33.656 323.999,31.200 323.481,31.200 324.010 " stroke="none" fill="#0592ba" fill-rule="evenodd"></path><path id="path1" d="M123.371 25.626 C 122.947 26.081,121.125 27.861,119.322 29.582 C 117.520 31.303,116.155 32.821,116.289 32.956 C 116.423 33.090,116.306 33.200,116.029 33.200 C 115.752 33.200,113.931 34.865,111.983 36.900 C 110.036 38.935,108.272 40.754,108.064 40.943 C 107.856 41.132,103.996 44.976,99.486 49.486 C 94.976 53.996,91.132 57.856,90.943 58.064 C 90.754 58.272,88.935 60.036,86.900 61.983 C 84.865 63.931,83.200 65.752,83.200 66.029 C 83.200 66.306,83.090 66.423,82.956 66.289 C 82.821 66.155,81.299 67.520,79.574 69.322 C 77.848 71.125,76.068 72.966,75.618 73.414 C 75.168 73.862,74.800 74.367,74.800 74.536 C 74.800 74.705,81.775 74.788,90.300 74.722 L 105.800 74.600 109.000 73.305 C 115.442 70.699,120.699 65.442,123.305 59.000 L 124.600 55.800 124.722 40.300 C 124.790 31.610,124.689 24.800,124.493 24.800 C 124.300 24.800,123.796 25.172,123.371 25.626 M128.200 88.359 C 124.056 90.779,124.154 97.034,128.368 99.184 C 129.963 99.998,130.212 100.000,212.725 100.000 L 295.482 100.000 296.831 99.090 C 301.001 96.281,300.984 90.799,296.798 88.447 L 295.291 87.600 212.346 87.629 C 134.071 87.657,129.332 87.698,128.200 88.359 M103.586 113.300 C 99.245 115.491,98.880 121.454,102.935 123.960 L 104.294 124.800 200.088 124.800 L 295.882 124.800 297.211 123.900 C 301.378 121.079,300.809 115.423,296.120 113.048 C 294.950 112.456,286.653 112.400,200.105 112.400 L 105.370 112.400 103.586 113.300 M103.169 138.510 C 99.516 140.971,98.984 144.636,101.800 147.938 C 103.677 150.139,97.035 150.000,200.121 150.000 L 295.482 150.000 296.831 149.090 C 301.001 146.281,300.984 140.799,296.798 138.447 L 295.291 137.600 199.905 137.600 L 104.518 137.600 103.169 138.510 M103.586 163.300 C 99.245 165.491,98.880 171.454,102.935 173.960 L 104.294 174.800 200.088 174.800 L 295.882 174.800 297.211 173.900 C 301.378 171.079,300.809 165.423,296.120 163.048 C 294.950 162.456,286.653 162.400,200.105 162.400 L 105.370 162.400 103.586 163.300 M103.169 188.510 C 99.516 190.971,98.984 194.636,101.800 197.938 C 103.677 200.139,97.035 200.000,200.121 200.000 L 295.482 200.000 296.831 199.090 C 301.001 196.281,300.984 190.799,296.798 188.447 L 295.291 187.600 199.905 187.600 L 104.518 187.600 103.169 188.510 M103.586 213.300 C 99.245 215.491,98.880 221.454,102.935 223.960 L 104.294 224.800 200.088 224.800 L 295.882 224.800 297.211 223.900 C 301.378 221.079,300.809 215.423,296.120 213.048 C 294.950 212.456,286.653 212.400,200.105 212.400 L 105.370 212.400 103.586 213.300 M103.169 238.510 C 98.818 241.442,99.080 247.045,103.680 249.438 C 105.532 250.402,270.143 250.209,271.800 249.241 C 275.797 246.907,275.856 240.807,271.904 238.398 C 270.614 237.611,269.715 237.603,187.559 237.601 L 104.518 237.600 103.169 238.510 M62.588 300.000 C 62.588 313.970,62.639 319.685,62.700 312.700 C 62.761 305.715,62.761 294.285,62.700 287.300 C 62.639 280.315,62.588 286.030,62.588 300.000 M257.000 290.862 C 264.417 294.591,265.675 295.429,266.638 297.280 C 267.870 299.648,266.981 303.656,264.919 305.027 C 263.589 305.912,250.731 312.399,250.306 312.399 C 250.144 312.400,249.961 306.955,249.900 300.300 L 249.788 288.200 249.694 300.505 L 249.600 312.810 237.173 319.007 L 224.747 325.204 149.773 325.102 L 74.800 325.000 74.800 328.100 L 74.800 331.200 150.002 331.200 L 225.203 331.200 244.902 321.358 C 268.369 309.633,267.286 310.411,267.221 305.342 C 267.204 304.054,267.300 301.954,267.434 300.676 C 267.704 298.095,267.255 296.566,265.835 295.233 C 264.885 294.340,250.939 287.185,250.220 287.221 C 249.989 287.233,253.040 288.871,257.000 290.862 " stroke="none" fill="#dc9404" fill-rule="evenodd"></path><path id="path2" d="M62.800 300.000 L 62.800 325.200 68.800 325.200 L 74.800 325.200 74.800 300.000 L 74.800 274.800 68.800 274.800 L 62.800 274.800 62.800 300.000 M225.200 299.981 L 225.200 324.673 237.300 318.602 L 249.400 312.532 249.600 300.166 C 249.710 293.365,249.800 287.770,249.800 287.734 C 249.800 287.698,244.265 284.883,237.500 281.479 L 225.200 275.289 225.200 299.981 " stroke="none" fill="#f4dcc4" fill-rule="evenodd"></path><path id="path3" d="M124.722 40.300 L 124.600 55.800 123.305 59.000 C 120.699 65.442,115.442 70.699,109.000 73.305 L 105.800 74.600 90.300 74.722 L 74.800 74.843 74.800 174.822 L 74.800 274.800 149.920 274.800 C 202.239 274.800,225.169 274.929,225.463 275.223 C 226.306 276.066,249.626 287.565,250.113 287.378 C 250.731 287.141,264.595 294.068,265.835 295.233 C 267.255 296.566,267.704 298.095,267.434 300.676 C 267.300 301.954,267.204 304.054,267.221 305.342 C 267.286 310.411,268.369 309.633,244.902 321.358 L 225.203 331.200 150.002 331.200 L 74.800 331.200 74.800 343.776 C 74.800 351.159,74.955 356.448,75.175 356.584 C 75.381 356.712,75.541 357.127,75.531 357.508 C 75.504 358.544,76.968 362.281,77.732 363.124 C 78.099 363.531,78.400 364.174,78.400 364.555 C 78.400 364.936,78.580 365.136,78.800 365.000 C 79.020 364.864,79.200 364.994,79.200 365.288 C 79.200 365.583,79.560 366.083,80.000 366.400 C 80.440 366.717,80.800 367.213,80.800 367.501 C 80.800 367.789,81.102 368.141,81.472 368.283 C 81.842 368.425,82.854 369.229,83.720 370.070 C 84.587 370.912,85.462 371.600,85.665 371.600 C 85.868 371.600,86.420 371.960,86.892 372.400 C 87.365 372.840,87.942 373.165,88.176 373.121 C 88.409 373.078,89.410 373.482,90.400 374.021 L 92.200 375.000 199.000 375.104 C 257.740 375.161,306.070 375.089,306.400 374.943 C 306.730 374.797,307.340 374.720,307.755 374.773 C 308.170 374.826,308.659 374.628,308.840 374.334 C 309.022 374.041,309.312 373.780,309.485 373.756 C 311.073 373.533,312.506 372.990,312.676 372.545 C 312.790 372.248,313.045 372.104,313.242 372.226 C 313.439 372.348,313.600 372.257,313.600 372.024 C 313.600 371.791,313.815 371.600,314.078 371.600 C 314.341 371.600,315.050 371.127,315.653 370.550 C 316.256 369.972,317.148 369.297,317.635 369.050 C 318.123 368.802,318.719 368.254,318.961 367.831 C 319.202 367.408,319.895 366.526,320.500 365.872 C 321.105 365.217,321.600 364.521,321.600 364.324 C 321.600 364.127,321.940 363.601,322.356 363.155 C 322.772 362.709,323.335 361.547,323.608 360.572 C 323.881 359.597,324.273 358.800,324.481 358.800 C 324.688 358.800,324.818 358.395,324.769 357.900 C 324.721 357.405,324.799 356.730,324.944 356.400 C 325.089 356.070,325.160 285.240,325.103 199.000 L 325.000 42.200 324.021 40.400 C 323.482 39.410,323.078 38.409,323.121 38.176 C 323.165 37.942,322.840 37.365,322.400 36.892 C 321.960 36.420,321.599 35.891,321.598 35.717 C 321.597 35.543,321.057 34.825,320.398 34.122 C 319.739 33.419,319.200 32.682,319.200 32.484 C 319.200 32.286,318.840 31.798,318.400 31.400 C 317.960 31.002,317.600 30.839,317.600 31.038 C 317.599 31.237,317.173 30.905,316.653 30.300 C 316.133 29.695,315.492 29.200,315.230 29.200 C 314.967 29.200,314.864 29.020,315.000 28.800 C 315.136 28.580,314.904 28.400,314.486 28.400 C 314.067 28.400,313.397 28.039,312.998 27.598 C 312.598 27.156,312.197 26.870,312.105 26.962 C 312.013 27.054,311.007 26.721,309.869 26.223 C 308.731 25.724,307.591 25.390,307.337 25.479 C 307.082 25.569,306.756 25.453,306.613 25.221 C 306.432 24.928,278.703 24.800,215.598 24.800 L 124.843 24.800 124.722 40.300 M296.798 88.447 C 300.984 90.799,301.001 96.281,296.831 99.090 L 295.482 100.000 212.725 100.000 C 130.212 100.000,129.963 99.998,128.368 99.184 C 124.154 97.034,124.056 90.779,128.200 88.359 C 129.332 87.698,134.071 87.657,212.346 87.629 L 295.291 87.600 296.798 88.447 M296.120 113.048 C 300.809 115.423,301.378 121.079,297.211 123.900 L 295.882 124.800 200.088 124.800 L 104.294 124.800 102.935 123.960 C 98.880 121.454,99.245 115.491,103.586 113.300 L 105.370 112.400 200.105 112.400 C 286.653 112.400,294.950 112.456,296.120 113.048 M296.798 138.447 C 300.984 140.799,301.001 146.281,296.831 149.090 L 295.482 150.000 200.121 150.000 C 97.035 150.000,103.677 150.139,101.800 147.938 C 98.984 144.636,99.516 140.971,103.169 138.510 L 104.518 137.600 199.905 137.600 L 295.291 137.600 296.798 138.447 M296.120 163.048 C 300.809 165.423,301.378 171.079,297.211 173.900 L 295.882 174.800 200.088 174.800 L 104.294 174.800 102.935 173.960 C 98.880 171.454,99.245 165.491,103.586 163.300 L 105.370 162.400 200.105 162.400 C 286.653 162.400,294.950 162.456,296.120 163.048 M296.798 188.447 C 300.984 190.799,301.001 196.281,296.831 199.090 L 295.482 200.000 200.121 200.000 C 97.035 200.000,103.677 200.139,101.800 197.938 C 98.984 194.636,99.516 190.971,103.169 188.510 L 104.518 187.600 199.905 187.600 L 295.291 187.600 296.798 188.447 M296.120 213.048 C 300.809 215.423,301.378 221.079,297.211 223.900 L 295.882 224.800 200.088 224.800 L 104.294 224.800 102.935 223.960 C 98.880 221.454,99.245 215.491,103.586 213.300 L 105.370 212.400 200.105 212.400 C 286.653 212.400,294.950 212.456,296.120 213.048 M271.904 238.398 C 275.856 240.807,275.797 246.907,271.800 249.241 C 270.143 250.209,105.532 250.402,103.680 249.438 C 99.080 247.045,98.818 241.442,103.169 238.510 L 104.518 237.600 187.559 237.601 C 269.715 237.603,270.614 237.611,271.904 238.398 M244.300 315.026 C 243.255 315.570,242.400 316.105,242.400 316.214 C 242.400 316.393,246.360 314.523,246.767 314.152 C 247.262 313.701,245.961 314.162,244.300 315.026 M239.500 317.426 C 238.455 317.970,237.600 318.505,237.600 318.614 C 237.600 318.793,241.560 316.923,241.967 316.552 C 242.462 316.101,241.161 316.562,239.500 317.426 M233.500 320.425 C 231.795 321.297,230.400 322.100,230.400 322.209 C 230.400 322.388,236.760 319.328,237.167 318.954 C 237.733 318.432,236.179 319.055,233.500 320.425 " stroke="none" fill="#fbb404" fill-rule="evenodd"></path><path id="path4" d="M32.098 275.088 C 31.821 275.187,31.716 275.464,31.863 275.702 C 32.038 275.985,31.880 276.039,31.409 275.859 C 30.812 275.630,30.771 275.683,31.169 276.163 C 31.560 276.634,31.484 276.834,30.767 277.217 C 29.969 277.645,29.904 277.609,30.102 276.852 C 30.410 275.675,29.359 276.284,27.466 278.380 C 26.015 279.986,25.500 280.913,26.537 280.052 C 26.832 279.807,27.202 279.735,27.358 279.891 C 27.514 280.048,27.524 279.866,27.378 279.488 C 27.233 279.110,27.294 278.800,27.514 278.800 C 28.304 278.800,28.364 279.957,27.588 280.204 C 27.163 280.339,26.834 280.573,26.855 280.724 C 26.965 281.491,26.741 281.649,26.191 281.192 C 25.676 280.765,25.625 280.799,25.859 281.409 C 26.050 281.906,25.990 282.041,25.668 281.842 C 25.139 281.515,25.155 281.456,24.966 284.316 C 24.871 285.744,24.965 286.346,25.253 286.167 C 25.545 285.987,25.541 286.162,25.240 286.725 C 24.631 287.863,24.631 312.137,25.240 313.275 C 25.573 313.897,25.565 314.025,25.206 313.804 C 24.881 313.603,24.777 313.807,24.876 314.456 C 24.955 314.975,25.195 315.370,25.409 315.333 C 25.624 315.297,25.800 315.704,25.800 316.238 C 25.800 316.850,25.615 317.138,25.300 317.017 C 24.705 316.789,24.666 317.173,25.200 318.000 C 25.505 318.471,25.589 318.482,25.594 318.051 C 25.599 317.610,25.717 317.599,26.196 317.996 C 26.523 318.268,26.707 318.628,26.603 318.795 C 26.500 318.962,26.862 319.581,27.407 320.170 C 27.953 320.759,28.400 321.450,28.400 321.705 C 28.400 321.961,27.851 321.547,27.180 320.785 C 26.510 320.023,26.135 319.760,26.348 320.200 C 27.094 321.743,31.374 325.159,31.901 324.632 C 32.029 324.504,31.923 324.400,31.667 324.400 C 31.410 324.400,31.200 324.225,31.200 324.010 C 31.200 323.488,33.652 323.994,34.309 324.652 C 34.704 325.047,37.964 325.170,48.610 325.190 L 62.400 325.215 62.400 299.990 L 62.400 274.764 47.500 274.836 C 39.305 274.876,32.374 274.990,32.098 275.088 M74.984 275.299 C 74.879 275.575,74.839 286.870,74.896 300.400 L 75.000 325.000 150.000 325.000 L 225.000 325.000 225.000 300.000 L 225.000 275.000 150.088 274.899 C 90.369 274.818,75.137 274.900,74.984 275.299 M224.800 300.000 L 224.800 324.800 150.000 324.800 L 75.200 324.800 75.200 300.000 L 75.200 275.200 150.000 275.200 L 224.800 275.200 224.800 300.000 M250.000 300.000 C 250.000 306.820,250.135 312.400,250.300 312.399 C 250.729 312.399,263.579 305.919,264.919 305.027 C 267.850 303.078,267.966 297.931,265.138 295.341 C 264.346 294.616,250.812 287.600,250.204 287.600 C 250.092 287.600,250.000 293.180,250.000 300.000 M30.624 322.800 C 31.188 322.800,31.250 322.910,30.889 323.271 C 30.376 323.784,28.788 322.689,28.813 321.838 C 28.820 321.597,29.065 321.715,29.357 322.100 C 29.649 322.485,30.219 322.800,30.624 322.800 " stroke="none" fill="#44645c" fill-rule="evenodd"></path></g></svg>